<?xml version="1.0" encoding="utf-8"?>
<!-- Generator: Adobe Illustrator 27.2.0, SVG Export Plug-In . SVG Version: 6.00 Build 0)  -->
<svg version="1.1" id="Layer_1" xmlns="http://www.w3.org/2000/svg" xmlns:xlink="http://www.w3.org/1999/xlink" x="0px" y="0px"
	 viewBox="0 0 100 100" style="enable-background:new 0 0 100 100;" xml:space="preserve">
<g>
	<path d="M96.5,65.6c-0.6-1.2-1.5-2.2-2.6-2.9c0.3-0.8,0.9-2.7,1.5-4.7c1.3-4.2-1-8.7-5.2-10c-4.2-1.3-8.6,1-10,5.2l-3.3,10.4
		L67.6,62c-0.9-0.1-1.7,0.4-1.8,1.3c-0.1,0.9,0.4,1.7,1.3,1.8l10.7,1.8c0.1,0,0.2,0,0.3,0c0.7,0,1.3-0.4,1.5-1.1l3.7-11.6
		c0.8-2.5,3.5-3.9,6-3.1c2.5,0.8,4,3.5,3.2,6.1c-0.6,1.8-1.1,3.5-1.4,4.5c-1.8-0.4-3.7-0.2-5.3,0.7c-1.8,1-3.2,2.6-3.8,4.6l-1.7,5.5
		c-1-1.5-2.4-2.5-4.1-3.1l-0.3-0.1c-3.8-1.2-7.9,0.7-9.5,4.3c-1-1.5-2.4-2.6-4.2-3.1l-0.3-0.1c-4.1-1.3-8.5,1-9.8,5.1l-1.1,3.5
		l-3-1.3c-0.8-0.3-1.7,0-2.1,0.8c-0.3,0.8,0,1.7,0.8,2.1l3.3,1.4l-2.5,8c-0.3,1-0.4,1.9-0.3,2.9L46.1,92c-4.4-2.9-10-3.2-14.7-0.8
		c-5.1,2.6-11.1,1.6-15.1-2.5L4.4,76.5c-1.3-1.3-1.6-3.2-0.9-4.9l8-19.4c0.6-1.4,1.7-2.5,3.2-3.1c1.5-0.5,3-0.4,4.4,0.3
		c2.4,1.2,3.5,4,2.7,6.6l-4.5,13.5c-0.8,2.3,0.1,4.9,2.2,6.3l9.6,6.4c0.7,0.5,1.7,0.3,2.2-0.4c0.5-0.7,0.3-1.7-0.4-2.2l-6.4-4.2
		l2.7-1.5c1.8-1,3.9-1.3,6-0.8l5.4,1.3c0.8,0.2,1.7-0.3,1.9-1.1c0.2-0.8-0.3-1.7-1.1-1.9L33.9,70c-2.8-0.7-5.7-0.3-8.2,1.1l-4.1,2.3
		l-0.3-0.2c-0.9-0.6-1.3-1.7-0.9-2.7L24.7,57c1.3-4-0.4-8.3-4.2-10.3c-2.1-1.1-4.7-1.3-6.9-0.5c-2.3,0.8-4.1,2.6-5,4.8l-8,19.4
		c-1.2,2.8-0.5,6.1,1.6,8.3l11.9,12.2c3.1,3.2,7.2,4.9,11.5,4.9c2.5,0,5-0.6,7.3-1.8c3.7-1.9,8.1-1.6,11.5,0.6l6.1,4
		c0.1,0.1,0.2,0.1,0.3,0.2c0.5,0.3,1,0.5,1.6,0.7c0,0,0,0,0,0l0.3,0.1c0.8,0.2,1.6,0.4,2.3,0.4c3,0,5.9-1.8,7.1-4.7
		c1,1.4,2.4,2.6,4.2,3.1c0,0,0,0,0,0l0.3,0.1c0.8,0.2,1.6,0.4,2.3,0.4c3.3,0,6.4-2.1,7.4-5.5l1.7-5.5c1,1.5,2.4,2.5,4.1,3.1
		c0,0,0,0,0,0l0.3,0.1c0.8,0.2,1.6,0.4,2.4,0.4c1.2,0,2.5-0.3,3.6-0.9c1.8-1,3.2-2.6,3.8-4.6L97,71.6C97.7,69.6,97.5,67.5,96.5,65.6
		z M59.6,93.6c-0.4,1.2-1.2,2.2-2.3,2.7c-1.1,0.6-2.4,0.7-3.6,0.3l-0.3-0.1c-2.5-0.8-3.8-3.4-3-5.9l4.6-14.5c0.8-2.5,3.4-3.8,5.9-3
		l0.3,0.1c1.2,0.4,2.2,1.2,2.7,2.3c0.6,1.1,0.7,2.4,0.3,3.6L59.6,93.6z M73.5,92.6c-0.4,1.2-1.2,2.2-2.3,2.7
		c-1.1,0.6-2.4,0.7-3.6,0.3l-0.3-0.1c-2.5-0.8-3.8-3.4-3-5.9l4.6-14.5c0.8-2.5,3.4-3.8,5.9-3l0.3,0.1c1.2,0.4,2.2,1.2,2.7,2.3
		c0.6,1.1,0.7,2.4,0.3,3.6L73.5,92.6z M94,70.6l-4.6,14.5c-0.4,1.2-1.2,2.2-2.3,2.7c-1.1,0.6-2.4,0.7-3.6,0.3l-0.3-0.1
		c-2.5-0.8-3.8-3.4-3-5.9l4.6-14.5c0.4-1.2,1.2-2.2,2.3-2.7c1.1-0.6,2.4-0.7,3.6-0.3l0.3,0.1c1.2,0.4,2.2,1.2,2.7,2.3
		C94.3,68.2,94.4,69.5,94,70.6z"/>
	<path d="M39,68.4c0.3,0.5,0.8,0.8,1.4,0.8c0.3,0,0.5-0.1,0.7-0.2l3.8-2c0.8-0.4,1-1.4,0.6-2.1c-0.4-0.8-1.4-1-2.1-0.6l-3.8,2
		C38.9,66.7,38.6,67.6,39,68.4z"/>
	<path d="M38.9,24.1c0-0.6-0.4-1.2-1-1.4c-0.6-0.2-1.3-0.1-1.7,0.3L33.3,26c-0.6,0.6-0.6,1.6,0,2.2c0.6,0.6,1.6,0.6,2.2,0l0.3-0.3
		V36c0,0.9,0.7,1.6,1.6,1.6c0.9,0,1.6-0.7,1.6-1.6V24.1z"/>
	<path d="M37.2,18.8h0.2c2.9,0,5.2-2.3,5.2-5.2V8.9c0-2.9-2.3-5.2-5.2-5.2h-0.2C34.3,3.6,32,6,32,8.9v4.7
		C32,16.4,34.3,18.8,37.2,18.8z M35.1,8.9c0-1.1,0.9-2.1,2.1-2.1h0.2c1.1,0,2.1,0.9,2.1,2.1v4.7c0,1.1-0.9,2.1-2.1,2.1h-0.2
		c-1.1,0-2.1-0.9-2.1-2.1V8.9z"/>
	<path d="M54.6,47.2c0.9,0,1.6-0.7,1.6-1.6V33.8c0-0.6-0.4-1.2-1-1.4c-0.6-0.2-1.3-0.1-1.7,0.3l-2.9,2.9c-0.6,0.6-0.6,1.6,0,2.2
		c0.6,0.6,1.6,0.6,2.2,0l0.3-0.3v8.1C53,46.5,53.7,47.2,54.6,47.2z"/>
	<path d="M52.7,16.2l0.3-0.3V24c0,0.9,0.7,1.6,1.6,1.6c0.9,0,1.6-0.7,1.6-1.6V12.2c0-0.6-0.4-1.2-1-1.4c-0.6-0.2-1.3-0.1-1.7,0.3
		L50.5,14c-0.6,0.6-0.6,1.6,0,2.2C51.1,16.8,52.1,16.8,52.7,16.2z"/>
	<path d="M54.5,66.2h0.2c2.9,0,5.2-2.3,5.2-5.2v-4.7c0-2.9-2.3-5.2-5.2-5.2h-0.2c-2.9,0-5.2,2.3-5.2,5.2V61
		C49.3,63.9,51.6,66.2,54.5,66.2z M52.4,56.3c0-1.1,0.9-2.1,2.1-2.1h0.2c1.1,0,2.1,0.9,2.1,2.1V61c0,1.1-0.9,2.1-2.1,2.1h-0.2
		c-1.1,0-2.1-0.9-2.1-2.1V56.3z"/>
	<path d="M69.5,6.8l0.3-0.3v8.1c0,0.9,0.7,1.6,1.6,1.6c0.9,0,1.6-0.7,1.6-1.6V2.8c0-0.6-0.4-1.2-1-1.4c-0.6-0.2-1.3-0.1-1.7,0.3
		l-2.9,2.9c-0.6,0.6-0.6,1.6,0,2.2C67.9,7.4,68.9,7.4,69.5,6.8z"/>
	<path d="M71.2,35h0.2c2.9,0,5.2-2.3,5.2-5.2v-4.7c0-2.9-2.3-5.2-5.2-5.2h-0.2c-2.9,0-5.2,2.3-5.2,5.2v4.7C66,32.7,68.3,35,71.2,35z
		 M69.1,25.1c0-1.1,0.9-2.1,2.1-2.1h0.2c1.1,0,2.1,0.9,2.1,2.1v4.7c0,1.1-0.9,2.1-2.1,2.1h-0.2c-1.1,0-2.1-0.9-2.1-2.1V25.1z"/>
	<path d="M21.4,41.2c0.9,0,1.6-0.7,1.6-1.6v-5.1c0-0.9-0.7-1.6-1.6-1.6c-0.9,0-1.6,0.7-1.6,1.6v5.1C19.8,40.5,20.5,41.2,21.4,41.2z"
		/>
	<path d="M21.4,22.2c0.9,0,1.6-0.7,1.6-1.6V2c0-0.9-0.7-1.6-1.6-1.6c-0.9,0-1.6,0.7-1.6,1.6v18.6C19.8,21.5,20.5,22.2,21.4,22.2z"/>
	<path d="M21.4,29.9c0.9,0,1.6-0.7,1.6-1.6v-0.9c0-0.9-0.7-1.6-1.6-1.6c-0.9,0-1.6,0.7-1.6,1.6v0.9C19.8,29.2,20.5,29.9,21.4,29.9z"
		/>
	<path d="M37.2,49.2c-0.9,0-1.6,0.7-1.6,1.6v5.1c0,0.9,0.7,1.6,1.6,1.6c0.9,0,1.6-0.7,1.6-1.6v-5.1C38.8,49.9,38.1,49.2,37.2,49.2z"
		/>
	<path d="M38.8,43.7c0-0.9-0.7-1.6-1.6-1.6c-0.9,0-1.6,0.7-1.6,1.6v0.9c0,0.9,0.7,1.6,1.6,1.6c0.9,0,1.6-0.7,1.6-1.6V43.7z"/>
	<path d="M14.5,30.3c0.9,0,1.6-0.7,1.6-1.6v-9.4c0-0.9-0.7-1.6-1.6-1.6c-0.9,0-1.6,0.7-1.6,1.6v9.4C13,29.6,13.7,30.3,14.5,30.3z"/>
	<path d="M14.5,37.4c0.9,0,1.6-0.7,1.6-1.6v-0.9c0-0.9-0.7-1.6-1.6-1.6c-0.9,0-1.6,0.7-1.6,1.6v0.9C13,36.7,13.7,37.4,14.5,37.4z"/>
	<path d="M14.5,15.3c0.9,0,1.6-0.7,1.6-1.6v-0.9c0-0.9-0.7-1.6-1.6-1.6c-0.9,0-1.6,0.7-1.6,1.6v0.9C13,14.6,13.7,15.3,14.5,15.3z"/>
	<path d="M84,41.2c0.9,0,1.6-0.7,1.6-1.6v-5.1c0-0.9-0.7-1.6-1.6-1.6c-0.9,0-1.6,0.7-1.6,1.6v5.1C82.5,40.5,83.2,41.2,84,41.2z"/>
	<path d="M84,22.2c0.9,0,1.6-0.7,1.6-1.6V2c0-0.9-0.7-1.6-1.6-1.6c-0.9,0-1.6,0.7-1.6,1.6v18.6C82.5,21.5,83.2,22.2,84,22.2z"/>
	<path d="M84,29.9c0.9,0,1.6-0.7,1.6-1.6v-0.9c0-0.9-0.7-1.6-1.6-1.6c-0.9,0-1.6,0.7-1.6,1.6v0.9C82.5,29.2,83.2,29.9,84,29.9z"/>
	<path d="M71.4,46.4c-0.9,0-1.6,0.7-1.6,1.6v5.1c0,0.9,0.7,1.6,1.6,1.6c0.9,0,1.6-0.7,1.6-1.6V48C73,47.1,72.3,46.4,71.4,46.4z"/>
	<path d="M73,40.9c0-0.9-0.7-1.6-1.6-1.6c-0.9,0-1.6,0.7-1.6,1.6v0.9c0,0.9,0.7,1.6,1.6,1.6c0.9,0,1.6-0.7,1.6-1.6V40.9z"/>
	<path d="M90.9,30.3c0.9,0,1.6-0.7,1.6-1.6v-9.4c0-0.9-0.7-1.6-1.6-1.6c-0.9,0-1.6,0.7-1.6,1.6v9.4C89.3,29.6,90,30.3,90.9,30.3z"/>
	<path d="M90.9,37.4c0.9,0,1.6-0.7,1.6-1.6v-0.9c0-0.9-0.7-1.6-1.6-1.6c-0.9,0-1.6,0.7-1.6,1.6v0.9C89.3,36.7,90,37.4,90.9,37.4z"/>
	<path d="M90.9,15.3c0.9,0,1.6-0.7,1.6-1.6v-0.9c0-0.9-0.7-1.6-1.6-1.6c-0.9,0-1.6,0.7-1.6,1.6v0.9C89.3,14.6,90,15.3,90.9,15.3z"/>
</g>
</svg>
