<?xml version='1.0' encoding='utf-8'?>
<!DOCTYPE svg PUBLIC '-//W3C//DTD SVG 1.1//EN' 'http://www.w3.org/Graphics/SVG/1.1/DTD/svg11.dtd'>
<svg version="1.1" xmlns="http://www.w3.org/2000/svg" viewBox="0 0 512 512" xmlns:xlink="http://www.w3.org/1999/xlink" enable-background="new 0 0 512 512">
  <g>
    <g>
      <g>
        <path d="m348.6,382.5c0,32.3-26.2,58.6-58.5,58.6h-85.9v-125.2h85.9c32.2,0 58.5,26.3 58.5,58.6v8zm-215.6-34.7h30.3v61.4h-30.3v-61.4zm310.5-143.8c-3.3-57.9-48.4-104-103.4-104-14.3,0-28.2,3.1-41.1,9.1-26.6-47.5-74.4-77.1-127.3-77.1-82.1,0-148.9,71.8-148.9,160-1.06581e-14,16 2.2,31.7 6.7,47.1-11.4,17-17.5,37.4-17.5,58.5 0,12.7 2.2,25 6.5,36.8 3.9,10.6 15.6,16.1 26.2,12.2 10.6-3.9 16.1-15.6 12.2-26.2-2.6-7.2-4-14.9-4-22.8 0-15.4 5.3-30.2 14.9-41.5 4.7-5.6 6.1-13.3 3.6-20.2-5.1-14.2-7.7-28.9-7.7-43.9 0-65.7 48.5-119.1 108.1-119.1 43.6,0 82.2,28.8 99.6,73 7.2,18.3 26.9,12.7 32,8.5 10.8-8.8 23.6-13.5 36.9-13.5 34.6,0 62.7,31.3 62.7,69.8 0,15.8-0.2,22.7 15.4,27.6 24.4,7.7 42.9,30.7 42.9,59.1 0,33.3-24.3,60.5-54.1,60.5h-19c-7.8-47.1-48.8-83.1-97.9-83.1h-106.6c-11.3,0-20.4,9.2-20.4,20.5v11.5h-50.8c-11.3,0-20.4,9.2-20.4,20.5v102.3c0,11.3 9.1,20.5 20.4,20.5h50.8v11.5c0,11.3 9.1,20.5 20.4,20.5h106.3c49.2,0 90.1-36 97.9-83.1h19c52.3,0 94.9-45.5 94.9-101.4 0.2-41.2-23.6-78.1-58.3-93.6z"/>
      </g>
    </g>
  </g>
</svg>
